# xmcd
#
# Track frame offsets: 
#        150
#        22055
#        47797
#        70217
#        96032
#        116817
#        136850
#        158177
#        178452
#        204980
#        227000
#        243050
#
# Disc length: 3540 seconds
#
# Revision: 2
# Processed by: cddbd v1.5.2PL0 Copyright (c) Steve Scherf et al.
# Submitted via: ExactAudioCopyFreeDBPlugin 1.0
#
DISCID=a30dd20c
DTITLE=石川優子 - 微笑みたちの午後
DYEAR=1990
DGENRE=JPop
TTITLE0=最後のDance
TTITLE1=微笑みたちの午後
TTITLE2=絹の瞳で眠りたい
TTITLE3=Return to Myself
TTITLE4=青い空の涙
TTITLE5=LADY MOONの秘密
TTITLE6=ガラスのSomething
TTITLE7=愛を眠らせないで
TTITLE8=P.S. .I MISS YOU
TTITLE9=青春の窓から
TTITLE10=瞬のMemory
TTITLE11=くちびるせつなくて
EXTD=
EXTT0=
EXTT1=
EXTT2=
EXTT3=
EXTT4=
EXTT5=
EXTT6=
EXTT7=
EXTT8=
EXTT9=
EXTT10=
EXTT11=
PLAYORDER=
